<mxfile host="app.diagrams.net" modified="2023-07-03T16:44:47.925Z" agent="Mozilla/5.0 (X11; Linux x86_64) AppleWebKit/537.36 (KHTML, like Gecko) Chrome/114.0.0.0 Safari/537.36 Edg/114.0.1823.43" etag="MuAU861gsdwYtPvrg4LT" version="21.5.2" type="google">
  <diagram name="Страница 1" id="OX3f28Q9itbSbcUl4Fsn">
    <mxGraphModel grid="1" page="1" gridSize="10" guides="1" tooltips="1" connect="1" arrows="1" fold="1" pageScale="1" pageWidth="827" pageHeight="1169" math="0" shadow="0">
      <root>
        <mxCell id="0" />
        <mxCell id="1" parent="0" />
        <mxCell id="jRRz1reEXEymhoce7PUJ-1" value="Start" style="ellipse;whiteSpace=wrap;html=1;" vertex="1" parent="1">
          <mxGeometry x="80" y="40" width="120" height="80" as="geometry" />
        </mxCell>
        <mxCell id="jRRz1reEXEymhoce7PUJ-2" value="Size: Введите количество строк в массиве" style="rounded=0;whiteSpace=wrap;html=1;" vertex="1" parent="1">
          <mxGeometry x="80" y="160" width="120" height="60" as="geometry" />
        </mxCell>
        <mxCell id="jRRz1reEXEymhoce7PUJ-3" value="Write: Введите каждую строку отдельно" style="shape=parallelogram;perimeter=parallelogramPerimeter;whiteSpace=wrap;html=1;fixedSize=1;" vertex="1" parent="1">
          <mxGeometry x="80" y="280" width="120" height="60" as="geometry" />
        </mxCell>
        <mxCell id="jRRz1reEXEymhoce7PUJ-5" value="arrayString[Size]&lt;br&gt;ArrayFinal[Size]&lt;br&gt;element&lt;br&gt;i = 0&lt;br&gt;j = 0&lt;br&gt;len = 3&lt;br&gt;pos = 0" style="rounded=0;whiteSpace=wrap;html=1;" vertex="1" parent="1">
          <mxGeometry x="80" y="400" width="120" height="160" as="geometry" />
        </mxCell>
        <mxCell id="jRRz1reEXEymhoce7PUJ-6" value="i &amp;lt; size" style="rhombus;whiteSpace=wrap;html=1;" vertex="1" parent="1">
          <mxGeometry x="70" y="630" width="140" height="130" as="geometry" />
        </mxCell>
        <mxCell id="jRRz1reEXEymhoce7PUJ-7" value="element" style="shape=parallelogram;perimeter=parallelogramPerimeter;whiteSpace=wrap;html=1;fixedSize=1;" vertex="1" parent="1">
          <mxGeometry x="65" y="815" width="150" height="70" as="geometry" />
        </mxCell>
        <mxCell id="jRRz1reEXEymhoce7PUJ-8" value="arrayString[i] = element&lt;br&gt;i++" style="rounded=0;whiteSpace=wrap;html=1;" vertex="1" parent="1">
          <mxGeometry x="60" y="960" width="160" height="60" as="geometry" />
        </mxCell>
        <mxCell id="jRRz1reEXEymhoce7PUJ-10" value="j &amp;lt; size" style="rhombus;whiteSpace=wrap;html=1;" vertex="1" parent="1">
          <mxGeometry x="344" y="630" width="140" height="130" as="geometry" />
        </mxCell>
        <mxCell id="jRRz1reEXEymhoce7PUJ-11" value="arrayString.Length &amp;lt;= len" style="rhombus;whiteSpace=wrap;html=1;" vertex="1" parent="1">
          <mxGeometry x="319" y="815" width="190" height="80" as="geometry" />
        </mxCell>
        <mxCell id="jRRz1reEXEymhoce7PUJ-12" value="j++" style="rounded=0;whiteSpace=wrap;html=1;" vertex="1" parent="1">
          <mxGeometry x="354" y="960" width="120" height="60" as="geometry" />
        </mxCell>
        <mxCell id="jRRz1reEXEymhoce7PUJ-13" value="arrayFinal[pos] = arrayString[j]&lt;br&gt;pos++" style="rounded=0;whiteSpace=wrap;html=1;" vertex="1" parent="1">
          <mxGeometry x="570" y="900" width="180" height="60" as="geometry" />
        </mxCell>
        <mxCell id="jRRz1reEXEymhoce7PUJ-14" value="arrayFinal" style="shape=document;whiteSpace=wrap;html=1;boundedLbl=1;" vertex="1" parent="1">
          <mxGeometry x="600" y="655" width="120" height="80" as="geometry" />
        </mxCell>
        <mxCell id="jRRz1reEXEymhoce7PUJ-15" value="End" style="ellipse;whiteSpace=wrap;html=1;" vertex="1" parent="1">
          <mxGeometry x="600" y="505" width="120" height="80" as="geometry" />
        </mxCell>
        <mxCell id="jRRz1reEXEymhoce7PUJ-16" value="" style="endArrow=classic;html=1;rounded=0;exitX=0.5;exitY=1;exitDx=0;exitDy=0;entryX=0.5;entryY=0;entryDx=0;entryDy=0;" edge="1" parent="1" source="jRRz1reEXEymhoce7PUJ-1" target="jRRz1reEXEymhoce7PUJ-2">
          <mxGeometry width="50" height="50" relative="1" as="geometry">
            <mxPoint x="420" y="520" as="sourcePoint" />
            <mxPoint x="470" y="470" as="targetPoint" />
          </mxGeometry>
        </mxCell>
        <mxCell id="jRRz1reEXEymhoce7PUJ-17" value="" style="endArrow=classic;html=1;rounded=0;exitX=0.5;exitY=1;exitDx=0;exitDy=0;entryX=0.5;entryY=0;entryDx=0;entryDy=0;" edge="1" parent="1" source="jRRz1reEXEymhoce7PUJ-2" target="jRRz1reEXEymhoce7PUJ-3">
          <mxGeometry width="50" height="50" relative="1" as="geometry">
            <mxPoint x="150" y="130" as="sourcePoint" />
            <mxPoint x="150" y="170" as="targetPoint" />
          </mxGeometry>
        </mxCell>
        <mxCell id="jRRz1reEXEymhoce7PUJ-18" value="" style="endArrow=classic;html=1;rounded=0;exitX=0.5;exitY=1;exitDx=0;exitDy=0;entryX=0.5;entryY=0;entryDx=0;entryDy=0;" edge="1" parent="1" source="jRRz1reEXEymhoce7PUJ-3" target="jRRz1reEXEymhoce7PUJ-5">
          <mxGeometry width="50" height="50" relative="1" as="geometry">
            <mxPoint x="160" y="140" as="sourcePoint" />
            <mxPoint x="160" y="180" as="targetPoint" />
          </mxGeometry>
        </mxCell>
        <mxCell id="jRRz1reEXEymhoce7PUJ-19" value="" style="endArrow=classic;html=1;rounded=0;exitX=0.5;exitY=1;exitDx=0;exitDy=0;entryX=0.5;entryY=0;entryDx=0;entryDy=0;" edge="1" parent="1" source="jRRz1reEXEymhoce7PUJ-5" target="jRRz1reEXEymhoce7PUJ-6">
          <mxGeometry width="50" height="50" relative="1" as="geometry">
            <mxPoint x="170" y="150" as="sourcePoint" />
            <mxPoint x="170" y="190" as="targetPoint" />
          </mxGeometry>
        </mxCell>
        <mxCell id="jRRz1reEXEymhoce7PUJ-20" value="" style="endArrow=classic;html=1;rounded=0;exitX=0.5;exitY=1;exitDx=0;exitDy=0;entryX=0.5;entryY=0;entryDx=0;entryDy=0;" edge="1" parent="1" source="jRRz1reEXEymhoce7PUJ-6" target="jRRz1reEXEymhoce7PUJ-7">
          <mxGeometry width="50" height="50" relative="1" as="geometry">
            <mxPoint x="150" y="570" as="sourcePoint" />
            <mxPoint x="150" y="640" as="targetPoint" />
          </mxGeometry>
        </mxCell>
        <mxCell id="jRRz1reEXEymhoce7PUJ-21" value="" style="endArrow=classic;html=1;rounded=0;exitX=0.5;exitY=1;exitDx=0;exitDy=0;entryX=0.5;entryY=0;entryDx=0;entryDy=0;" edge="1" parent="1" source="jRRz1reEXEymhoce7PUJ-7" target="jRRz1reEXEymhoce7PUJ-8">
          <mxGeometry width="50" height="50" relative="1" as="geometry">
            <mxPoint x="150" y="770" as="sourcePoint" />
            <mxPoint x="150" y="825" as="targetPoint" />
          </mxGeometry>
        </mxCell>
        <mxCell id="jRRz1reEXEymhoce7PUJ-22" value="Yes" style="text;html=1;strokeColor=none;fillColor=none;align=center;verticalAlign=middle;whiteSpace=wrap;rounded=0;" vertex="1" parent="1">
          <mxGeometry x="70" y="760" width="60" height="30" as="geometry" />
        </mxCell>
        <mxCell id="jRRz1reEXEymhoce7PUJ-23" value="" style="endArrow=classic;html=1;rounded=0;entryX=0.5;entryY=0;entryDx=0;entryDy=0;exitX=1;exitY=0.5;exitDx=0;exitDy=0;" edge="1" parent="1" source="jRRz1reEXEymhoce7PUJ-6" target="jRRz1reEXEymhoce7PUJ-10">
          <mxGeometry width="50" height="50" relative="1" as="geometry">
            <mxPoint x="230" y="840" as="sourcePoint" />
            <mxPoint x="280" y="790" as="targetPoint" />
            <Array as="points">
              <mxPoint x="210" y="590" />
              <mxPoint x="414" y="590" />
            </Array>
          </mxGeometry>
        </mxCell>
        <mxCell id="jRRz1reEXEymhoce7PUJ-24" value="No" style="text;html=1;strokeColor=none;fillColor=none;align=center;verticalAlign=middle;whiteSpace=wrap;rounded=0;" vertex="1" parent="1">
          <mxGeometry x="284" y="540" width="60" height="30" as="geometry" />
        </mxCell>
        <mxCell id="jRRz1reEXEymhoce7PUJ-25" value="" style="endArrow=classic;html=1;rounded=0;exitX=0;exitY=0.5;exitDx=0;exitDy=0;entryX=0;entryY=0.5;entryDx=0;entryDy=0;" edge="1" parent="1" source="jRRz1reEXEymhoce7PUJ-8" target="jRRz1reEXEymhoce7PUJ-6">
          <mxGeometry width="50" height="50" relative="1" as="geometry">
            <mxPoint x="230" y="840" as="sourcePoint" />
            <mxPoint x="280" y="790" as="targetPoint" />
            <Array as="points">
              <mxPoint x="10" y="990" />
              <mxPoint x="10" y="830" />
              <mxPoint x="10" y="695" />
            </Array>
          </mxGeometry>
        </mxCell>
        <mxCell id="jRRz1reEXEymhoce7PUJ-26" value="" style="endArrow=classic;html=1;rounded=0;exitX=0.5;exitY=1;exitDx=0;exitDy=0;entryX=0.5;entryY=0;entryDx=0;entryDy=0;" edge="1" parent="1" source="jRRz1reEXEymhoce7PUJ-10" target="jRRz1reEXEymhoce7PUJ-11">
          <mxGeometry width="50" height="50" relative="1" as="geometry">
            <mxPoint x="610" y="840" as="sourcePoint" />
            <mxPoint x="660" y="790" as="targetPoint" />
          </mxGeometry>
        </mxCell>
        <mxCell id="jRRz1reEXEymhoce7PUJ-27" value="" style="endArrow=classic;html=1;rounded=0;exitX=0.5;exitY=1;exitDx=0;exitDy=0;entryX=0.5;entryY=0;entryDx=0;entryDy=0;" edge="1" parent="1" source="jRRz1reEXEymhoce7PUJ-11" target="jRRz1reEXEymhoce7PUJ-12">
          <mxGeometry width="50" height="50" relative="1" as="geometry">
            <mxPoint x="610" y="840" as="sourcePoint" />
            <mxPoint x="660" y="790" as="targetPoint" />
          </mxGeometry>
        </mxCell>
        <mxCell id="jRRz1reEXEymhoce7PUJ-31" value="" style="endArrow=classic;html=1;rounded=0;exitX=1;exitY=0.5;exitDx=0;exitDy=0;entryX=0;entryY=0.5;entryDx=0;entryDy=0;" edge="1" parent="1" source="jRRz1reEXEymhoce7PUJ-10" target="jRRz1reEXEymhoce7PUJ-14">
          <mxGeometry width="50" height="50" relative="1" as="geometry">
            <mxPoint x="610" y="840" as="sourcePoint" />
            <mxPoint x="660" y="790" as="targetPoint" />
          </mxGeometry>
        </mxCell>
        <mxCell id="jRRz1reEXEymhoce7PUJ-32" value="" style="endArrow=classic;html=1;rounded=0;exitX=0;exitY=0.5;exitDx=0;exitDy=0;entryX=0;entryY=0.5;entryDx=0;entryDy=0;" edge="1" parent="1" source="jRRz1reEXEymhoce7PUJ-12" target="jRRz1reEXEymhoce7PUJ-10">
          <mxGeometry width="50" height="50" relative="1" as="geometry">
            <mxPoint x="610" y="740" as="sourcePoint" />
            <mxPoint x="660" y="690" as="targetPoint" />
            <Array as="points">
              <mxPoint x="280" y="990" />
              <mxPoint x="280" y="850" />
              <mxPoint x="280" y="695" />
            </Array>
          </mxGeometry>
        </mxCell>
        <mxCell id="jRRz1reEXEymhoce7PUJ-33" value="" style="endArrow=classic;html=1;rounded=0;exitX=1;exitY=0.5;exitDx=0;exitDy=0;entryX=0.5;entryY=0;entryDx=0;entryDy=0;" edge="1" parent="1" source="jRRz1reEXEymhoce7PUJ-11" target="jRRz1reEXEymhoce7PUJ-13">
          <mxGeometry width="50" height="50" relative="1" as="geometry">
            <mxPoint x="610" y="740" as="sourcePoint" />
            <mxPoint x="660" y="690" as="targetPoint" />
            <Array as="points">
              <mxPoint x="660" y="855" />
            </Array>
          </mxGeometry>
        </mxCell>
        <mxCell id="jRRz1reEXEymhoce7PUJ-34" value="" style="endArrow=classic;html=1;rounded=0;exitX=0.5;exitY=1;exitDx=0;exitDy=0;entryX=1;entryY=0.5;entryDx=0;entryDy=0;" edge="1" parent="1" source="jRRz1reEXEymhoce7PUJ-13" target="jRRz1reEXEymhoce7PUJ-12">
          <mxGeometry width="50" height="50" relative="1" as="geometry">
            <mxPoint x="610" y="740" as="sourcePoint" />
            <mxPoint x="660" y="690" as="targetPoint" />
            <Array as="points">
              <mxPoint x="660" y="990" />
            </Array>
          </mxGeometry>
        </mxCell>
        <mxCell id="jRRz1reEXEymhoce7PUJ-35" value="Yes" style="text;html=1;strokeColor=none;fillColor=none;align=center;verticalAlign=middle;whiteSpace=wrap;rounded=0;" vertex="1" parent="1">
          <mxGeometry x="344" y="770" width="60" height="30" as="geometry" />
        </mxCell>
        <mxCell id="jRRz1reEXEymhoce7PUJ-36" value="Yes" style="text;html=1;strokeColor=none;fillColor=none;align=center;verticalAlign=middle;whiteSpace=wrap;rounded=0;" vertex="1" parent="1">
          <mxGeometry x="550" y="815" width="60" height="30" as="geometry" />
        </mxCell>
        <mxCell id="jRRz1reEXEymhoce7PUJ-37" value="No" style="text;html=1;strokeColor=none;fillColor=none;align=center;verticalAlign=middle;whiteSpace=wrap;rounded=0;" vertex="1" parent="1">
          <mxGeometry x="500" y="650" width="60" height="30" as="geometry" />
        </mxCell>
        <mxCell id="jRRz1reEXEymhoce7PUJ-38" value="No" style="text;html=1;strokeColor=none;fillColor=none;align=center;verticalAlign=middle;whiteSpace=wrap;rounded=0;" vertex="1" parent="1">
          <mxGeometry x="344" y="910" width="60" height="30" as="geometry" />
        </mxCell>
        <mxCell id="jRRz1reEXEymhoce7PUJ-39" value="" style="endArrow=classic;html=1;rounded=0;exitX=0.5;exitY=0;exitDx=0;exitDy=0;entryX=0.5;entryY=1;entryDx=0;entryDy=0;" edge="1" parent="1" source="jRRz1reEXEymhoce7PUJ-14" target="jRRz1reEXEymhoce7PUJ-15">
          <mxGeometry width="50" height="50" relative="1" as="geometry">
            <mxPoint x="610" y="740" as="sourcePoint" />
            <mxPoint x="660" y="690" as="targetPoint" />
          </mxGeometry>
        </mxCell>
      </root>
    </mxGraphModel>
  </diagram>
</mxfile>
